#!OML:ASF H:\Terrain\Patient Classification 1\Animal1\Tuesday\Animal1.ASF
:FULLY-SPECIFIED
:DEGREES
2965
root 14.1352 15.2565 -13.8903 -338.804 0.477828 2.1416
lowerback 31.059 -0.780957 1.90816
upperback 6.26295 -0.569968 -1.58238
thorax -9.99503 -0.328028 -2.6946
lowerneck -4.57904 16.5049 2.899
upperneck -24.6537 20.4355 -17.098
head -4.55038 11.2603 -5.97891
rclavicle -6.4605e-016 6.60959e-015
rhumerus -26.9281 -32.1174 -9.24907
rradius 99.9934
rwrist 8.50578
rhand 7.44657 5.50225
rfingers 7.12502
rthumb 32.7007 -21.5606
lclavicle -6.4605e-016 6.60959e-015
lhumerus -29.0809 29.3623 14.7814
lradius 97.7422
lwrist -44.2923
lhand 23.1468 60.3736
lfingers 7.12502
lthumb 47.4544 82.837
rfemur -59.268 2.88729 12.6301
rtibia 53.4268
rfoot -10.2512 -19.3843
rtoes -3.89344
lfemur -56.4162 -2.3364 -12.0543
ltibia 46.582
lfoot -16.05 1.1118
ltoes -21.9876
2966
root 14.1334 15.2554 -13.8875 -338.77 0.520651 2.0769
lowerback 30.8886 -0.810987 2.07954
upperback 6.39518 -0.557991 -1.59456
thorax -9.76028 -0.32228 -2.81068
lowerneck -4.7453 16.3333 2.8059
upperneck -24.8141 20.2252 -16.8649
head -4.63403 11.1472 -5.91197
rclavicle 6.85807e-015 -2.5842e-015
rhumerus -26.649 -32.4711 -9.65158
rradius 100.097
rwrist 8.44235
rhand 7.59752 5.47738
rfingers 7.12502
rthumb 32.8443 -21.5556
lclavicle 6.85807e-015 -2.5842e-015
lhumerus -28.4151 29.7017 15.2482
lradius 97.7724
lwrist -44.438
lhand 23.313 60.6999
lfingers 7.12502
lthumb 47.608 83.0936
rfemur -59.2503 2.90364 12.7115
rtibia 53.3766
rfoot -10.3806 -19.4457
rtoes -3.98559
lfemur -56.4499 -2.31664 -11.9561
ltibia 46.5865
lfoot -16.1132 0.784162
ltoes -20.7191
2967
root 14.1312 15.2544 -13.8866 -338.696 0.54715 2.06624
lowerback 30.6538 -0.837232 2.225
upperback 6.49937 -0.557466 -1.65941
thorax -9.52797 -0.321528 -2.96698
lowerneck -4.95845 16.1685 2.9386
upperneck -24.7675 20.0275 -16.6739
head -4.61237 11.0177 -5.85878
rclavicle 5.86415e-015 8.29926e-015
rhumerus -26.5239 -32.6781 -10.0131
rradius 100.271
rwrist 8.50175
rhand 7.61033 5.50538
rfingers 7.12502
rthumb 32.8565 -21.525
lclavicle 5.86415e-015 8.29926e-015
lhumerus -27.5977 29.8897 15.6287
lradius 97.8265
lwrist -44.6468
lhand 23.5967 61.005
lfingers 7.12502
lthumb 47.8697 83.2784
rfemur -59.3155 2.90857 12.7247
rtibia 53.3706
rfoot -10.3768 -19.56
rtoes -4.43718
lfemur -56.5244 -2.31075 -11.9086
ltibia 46.5919
lfoot -16.0939 0.482097
ltoes -19.4931
2968
root 14.1294 15.2569 -13.8862 -338.742 0.593308 2.10299
lowerback 30.6781 -0.879988 2.29412
upperback 6.53243 -0.59195 -1.68341
thorax -9.50468 -0.338298 -3.02156
lowerneck -5.20054 15.9651 3.04094
upperneck -24.5742 19.7928 -16.3831
head -4.55906 10.8583 -5.76158
rclavicle 6.21202e-015 3.13086e-015
rhumerus -26.3136 -32.7254 -10.4145
rradius 100.418
rwrist 8.56024
rhand 7.68695 5.64364
rfingers 7.12502
rthumb 32.9293 -21.3715
lclavicle 6.21202e-015 3.13086e-015
lhumerus -27.3723 29.8274 15.8248
lradius 97.8975
lwrist -44.6287
lhand 23.0791 60.4564
lfingers 7.12502
lthumb 47.3919 82.948
rfemur -59.2643 2.90003 12.6944
rtibia 53.4217
rfoot -10.3196 -19.6357
rtoes -4.86352
lfemur -56.4751 -2.35935 -11.9505
ltibia 46.5818
lfoot -16.104 0.520283
ltoes -19.9413
2969
root 14.126 15.2567 -13.8883 -338.801 0.677239 2.08887
lowerback 30.8353 -0.930536 2.36331
upperback 6.50529 -0.623216 -1.61785
thorax -9.61381 -0.355547 -2.97665
lowerneck -5.40077 15.683 2.93615
upperneck -24.3391 19.4715 -15.9303
head -4.54867 10.6595 -5.60008
rclavicle 2.98177e-015 3.72721e-015
rhumerus -26.0099 -32.6303 -10.8748
rradius 100.603
rwrist 8.62416
rhand 7.43501 5.58513
rfingers 7.12502
rthumb 32.6897 -21.48
lclavicle 2.98177e-015 3.72721e-015
lhumerus -27.3898 29.6615 16.1096
lradius 98.2299
lwrist -44.7879
lhand 23.0997 60.5631
lfingers 7.12502
lthumb 47.411 83.0461
rfemur -59.2253 2.87949 12.7636
rtibia 53.5253
rfoot -10.235 -19.6037
rtoes -4.44822
lfemur -56.4399 -2.40748 -11.926
ltibia 46.5524
lfoot -16.1095 0.656892
ltoes -21.0535
2970
root 14.1223 15.2556 -13.8924 -338.781 0.714489 2.15282
lowerback 30.8834 -0.957193 2.35908
upperback 6.451 -0.653947 -1.59326
thorax -9.70142 -0.371279 -2.93517
lowerneck -5.18064 15.4323 2.78786
upperneck -24.4697 19.1799 -15.5084
head -4.71548 10.5013 -5.50775
rclavicle -1.98785e-016 -5.1684e-015
rhumerus -25.7217 -32.5395 -11.425
rradius 100.875
rwrist 8.78978
rhand 7.41959 5.57998
rfingers 7.12502
rthumb 32.675 -21.4882
lclavicle -1.98785e-016 -5.1684e-015
lhumerus -27.0342 29.5607 16.5159
lradius 98.486
lwrist -45.1053
lhand 23.7348 61.0955
lfingers 7.12502
lthumb 47.9971 83.3096
rfemur -59.3149 2.84772 12.7422
rtibia 53.6635
rfoot -10.2219 -19.5746
rtoes -3.61479
lfemur -56.4769 -2.45943 -11.9565
ltibia 46.5202
lfoot -16.0432 0.659308
ltoes -21.5458
2971
root 14.1194 15.2541 -13.8931 -338.691 0.764543 2.13268
lowerback 30.7811 -0.998048 2.45633
upperback 6.45544 -0.67439 -1.56876
thorax -9.64859 -0.381973 -2.95547
lowerneck -4.93309 15.2359 2.64854
upperneck -24.8678 18.935 -15.2338
head -4.94773 10.3846 -5.47768
rclavicle 1.78906e-015 -2.98177e-016
rhumerus -25.2801 -32.6638 -12.0438
rradius 101.102
rwrist 8.84627
rhand 7.83808 5.65664
rfingers 7.12502
rthumb 33.0731 -21.3281
lclavicle 1.78906e-015 -2.98177e-016
lhumerus -26.7016 29.5986 16.9481
lradius 98.8328
lwrist -45.2136
lhand 23.7924 60.7571
lfingers 7.12502
lthumb 48.0502 82.9464
rfemur -59.4613 2.83351 12.7903
rtibia 53.7656
rfoot -10.2935 -19.5292
rtoes -2.98052
lfemur -56.5783 -2.46848 -11.9041
ltibia 46.5069
lfoot -15.9877 0.878775
ltoes -23.6651
2972
root 14.1154 15.2488 -13.8937 -338.607 0.848382 2.04946
lowerback 30.7115 -1.05199 2.62232
upperback 6.47901 -0.685917 -1.51195
thorax -9.58896 -0.389462 -2.98243
lowerneck -5.01839 14.9219 2.47941
upperneck -25.061 18.547 -14.8501
head -5.08923 10.1781 -5.36881
rclavicle 3.57812e-015 3.27995e-015
rhumerus -24.7017 -32.7945 -12.654
rradius 101.311
rwrist 8.82502
rhand 7.98409 5.47205
rfingers 7.12502
rthumb 33.2119 -21.4832
lclavicle 3.57812e-015 3.27995e-015
lhumerus -26.608 29.5579 17.4983
lradius 99.5239
lwrist -45.11
lhand 23.2602 60.0042
lfingers 7.12502
lthumb 47.5592 82.4201
rfemur -59.5872 2.83819 12.8888
rtibia 53.8218
rfoot -10.2643 -19.5533
rtoes -3.1657
lfemur -56.6992 -2.45061 -11.7858
ltibia 46.493
lfoot -16.0134 1.04107
ltoes -25.5135
2973
root 14.1098 15.2514 -13.8962 -338.614 0.874695 2.08872
lowerback 30.7585 -1.06524 2.63344
upperback 6.51087 -0.693703 -1.47778
thorax -9.57531 -0.392084 -2.94708
lowerneck -5.27665 14.5043 2.39448
upperneck -25.0415 18.0305 -14.3943
head -5.14268 9.8863 -5.21829
rclavicle 1.88845e-015 1.10325e-014
rhumerus -24.1551 -32.8781 -13.2561
rradius 101.604
rwrist 8.7682
rhand 7.78329 5.36701
rfingers 7.12502
rthumb 33.021 -21.6288
lclavicle 1.88845e-015 1.10325e-014
lhumerus -26.0451 29.4719 18.1113
lradius 100.042
lwrist -45.0018
lhand 22.8022 59.8918
lfingers 7.12502
lthumb 47.136 82.4979
rfemur -59.5839 2.8749 12.8349
rtibia 53.8395
rfoot -10.1295 -19.6994
rtoes -3.90616
lfemur -56.7354 -2.52579 -11.7611
ltibia 46.464
lfoot -15.8795 0.747892
ltoes -23.0583
2974
root 14.1037 15.2594 -13.8987 -338.615 0.796432 2.2326
lowerback 30.7608 -1.03184 2.5042
upperback 6.56226 -0.694471 -1.50577
thorax -9.51684 -0.387836 -2.90317
lowerneck -5.46701 14.125 2.31159
upperneck -25.0701 17.5794 -13.8802
head -5.22107 9.62536 -5.05773
rclavicle -6.16232e-015 -1.88845e-015
rhumerus -23.659 -32.9877 -13.9117
rradius 101.926
rwrist 8.60037
rhand 7.98552 5.40682
rfingers 7.12502
rthumb 33.2133 -21.5481
lclavicle -6.16232e-015 -1.88845e-015
lhumerus -24.9276 29.4341 18.6376
lradius 100.288
lwrist -45.027
lhand 23.144 60.4903
lfingers 7.12502
lthumb 47.4519 82.9548
rfemur -59.6139 2.90982 12.6961
rtibia 53.8818
rfoot -9.98402 -19.5871
rtoes -3.54226
lfemur -56.7302 -2.59103 -11.878
ltibia 46.412
lfoot -15.6697 0.762048
ltoes -21.6903
